<svg id="Layer_1" data-name="Layer 1" xmlns="http://www.w3.org/2000/svg" xmlns:xlink="http://www.w3.org/1999/xlink" width="100" height="100" viewBox="0 0 100 100"><defs><style>.cls-1{fill:url(#linear-gradient);}.cls-2{fill:url(#linear-gradient-2);}.cls-3{fill:url(#linear-gradient-3);}.cls-4{fill:url(#linear-gradient-4);}.cls-5{fill:url(#linear-gradient-5);}</style><linearGradient id="linear-gradient" x1="394.06" y1="1106.51" x2="394.08" y2="1107.66" gradientTransform="translate(-143.14 -1040.12)" gradientUnits="userSpaceOnUse"><stop offset="0" stop-color="#00ffb1"/><stop offset="0.03" stop-color="#00efb9"/><stop offset="0.12" stop-color="#00c9cc"/><stop offset="0.22" stop-color="#00a9dc"/><stop offset="0.33" stop-color="#008fe9"/><stop offset="0.44" stop-color="#007bf3"/><stop offset="0.57" stop-color="#006dfa"/><stop offset="0.73" stop-color="#0065fe"/><stop offset="1" stop-color="#0062ff"/></linearGradient><linearGradient id="linear-gradient-2" x1="387.88" y1="1130.32" x2="387.88" y2="1130.32" xlink:href="#linear-gradient"/><linearGradient id="linear-gradient-3" x1="31.9" y1="21.23" x2="62.5" y2="101.25" gradientTransform="matrix(1, 0, 0, -1, 0, 82.29)" gradientUnits="userSpaceOnUse"><stop offset="0.09" stop-color="#0068fc"/><stop offset="0.74" stop-color="#00ffb1"/></linearGradient><linearGradient id="linear-gradient-4" x1="57.22" y1="40.83" x2="64.31" y2="65" gradientTransform="matrix(1, 0, 0, -1, 0, 82.29)" gradientUnits="userSpaceOnUse"><stop offset="0.13" stop-color="#008beb"/><stop offset="0.14" stop-color="#00b4d6"/><stop offset="0.4" stop-color="#00d5c6"/><stop offset="0.74" stop-color="#00ecba"/><stop offset="0.82" stop-color="#00fab3"/><stop offset="1" stop-color="#00ffb1"/></linearGradient><linearGradient id="linear-gradient-5" x1="-19.06" y1="51.66" x2="-19.06" y2="51.66" gradientTransform="matrix(1, 0, 0, -1, 0, 82.29)" gradientUnits="userSpaceOnUse"><stop offset="0.28" stop-color="#0062ff"/><stop offset="0.78" stop-color="#00ffb1"/></linearGradient></defs><path class="cls-1" d="M251.09,65.88a3.75,3.75,0,0,1-.33,1.65" transform="translate(0 0)"/><path class="cls-2" d="M244.74,90.2" transform="translate(0 0)"/><path class="cls-3" d="M65.63.2C52.54-1.58,41,9.07,39.38,19.09a17.07,17.07,0,0,0,.21,6.38c-1.31,2.14-2.79,4.38-4.46,6.68a104.86,104.86,0,0,1-7.48,9.13h0a20.76,20.76,0,0,0-8.29.54L1.72,34.88Q.85,43.8,0,52.74l12.87,6.6A12.16,12.16,0,0,0,16,65.69c4.11,4.36,11.52,4.26,16.51,1.37a15.61,15.61,0,0,0,7-9.93L59.4,43.82a22.82,22.82,0,0,0,2.74.22C74.78,44.29,86,33.73,85.62,21.35,85.28,10.47,76.1,1.62,65.63.2ZM35.41,57.88c-1.91,5.11-7.8,8.93-13,7.43a10.51,10.51,0,0,1-5.95-5.14,9.63,9.63,0,0,0,5.48,2.91c4.81.62,11.05-3,11.32-9A9.88,9.88,0,0,0,23.58,44h-.39c.3-.08,6-1.51,10.09,2.45C36.72,49.78,36.59,54.71,35.41,57.88Zm39.68-25c-6,6.17-17.3,5.82-23.59,0-.26-.27-6.5-6.28-4.66-14.42,1.57-6.82,8-11.57,14.91-12A16.78,16.78,0,0,1,78.81,19.35c.1.49,1.6,8.09-3.72,13.5Z" transform="translate(0 0)"/><path class="cls-4" d="M62.1,9.63c-7.34.38-13,6.83-12.61,13.4.47,8.07,10,13.79,17.67,11.41a12.9,12.9,0,0,0,9-12.16C76,15.29,69.56,9.2,62.1,9.63Z" transform="translate(0 0)"/><path class="cls-5" d="M-19.06,30.63" transform="translate(0 0)"/></svg>